<?xml version="1.0" encoding="utf-8"?>
<svg data-name="Layer 1" width="800.51365" height="631.85072" viewBox="0 0 800.51365 631.85072" xmlns="http://www.w3.org/2000/svg">
  <path d="M 698.49 489.862 L 661.742 455.556 L 644.316 439.483 C 637.245 432.961 638.611 421.435 647.011 416.746 C 654.306 412.673 663.524 415.783 666.862 423.442 L 672.594 436.593 L 708.189 473.515 L 698.49 489.862 Z" fill="#ffb9b9"/>
  <path d="M 703.293 467.61 L 690.388 489.105 L 742.775 521.239 C 788.959 488.042 798.101 477.239 786.786 424.359 L 777.786 415.359 L 734.268 485.94 L 703.293 467.61 Z" fill="#ffffff"/>
  <path d="M 627.216 407.848 C 626.15 406.797 624.495 406.635 623.245 407.457 L 598.985 423.258 C 597.284 424.366 597.036 426.761 598.475 428.194 L 660.169 489.62 C 661.431 490.877 663.478 490.857 664.716 489.576 L 684.934 468.651 C 686.15 467.387 686.121 465.379 684.868 464.151 L 627.216 407.848 Z" fill="#3f3d56"/>
  <path d="M 603.764 424.948 L 606.275 423.348 C 605.374 424.953 606.549 426.933 608.39 426.91 C 608.864 426.905 609.327 426.758 609.718 426.488 L 625.964 415.319 C 627.481 414.278 627.302 411.984 625.642 411.191 C 625.541 411.143 625.438 411.102 625.332 411.069 L 626.625 410.244 C 626.971 410.023 627.424 410.074 627.712 410.366 L 682.366 464.076 C 682.709 464.423 682.7 464.986 682.344 465.321 L 662.495 484.661 C 662.153 484.984 661.617 484.976 661.284 484.644 L 603.618 426.299 C 603.223 425.905 603.295 425.248 603.764 424.948 Z" fill="#fff"/>
  <polygon points="666.843 452.216 650.077 468.024 610.198 428.624 630.437 415.45 666.843 452.216" fill="#ffffff"/>
  <path d="M 611.748 438.348 C 611.974 438.121 611.974 437.754 611.748 437.527 L 608.26 434.04 C 608.031 433.821 607.669 433.821 607.44 434.04 C 607.214 434.267 607.214 434.633 607.44 434.86 L 610.927 438.348 C 611.157 438.567 611.518 438.567 611.748 438.348 Z" fill="#e6e6e6"/>
  <path d="M 617.623 443.402 L 614.135 439.914 C 613.819 439.599 613.28 439.743 613.164 440.175 C 613.111 440.375 613.168 440.588 613.315 440.735 L 616.802 444.222 C 617.118 444.538 617.657 444.394 617.773 443.962 C 617.826 443.762 617.769 443.548 617.623 443.402 Z" fill="#e6e6e6"/>
  <circle cx="666.456" cy="465.785" r="3.917" fill="#ffffff"/>
  <path d="M 414.777 593.86 L 394.88 599.113 C 389.018 610.687 375.231 615.795 363.243 610.834 L 362.808 610.655 C 360.172 609.529 357.712 608.027 355.506 606.196 C 347.149 599.422 333.227 595.926 314.764 595.104 C 312.436 594.372 310.898 592.157 311.026 589.719 C 311.162 587.142 313.117 585.029 315.676 584.696 L 415.229 571.711 L 414.777 593.86 Z" fill="#e6e6e6"/>
  <path d="M 672.89 611.49 C 620.839 603.142 573.421 589.631 533.663 567.58 L 410.256 597.867 L 410.708 570.806 L 507.17 536.973 C 523.443 531.265 540.738 529.055 557.924 530.487 L 672.89 551.821 L 672.89 611.49 Z" fill="#2f2e41"/>
  <path d="M 474.449 622.349 C 473.643 619.662 474.702 616.766 477.05 615.232 L 523.718 590.696 L 535.019 561.314 L 554.457 573.519 L 549.032 595.217 L 550.315 604.195 C 552.024 616.157 542.742 626.859 530.659 626.859 L 480.511 626.859 C 477.716 626.859 475.252 625.026 474.449 622.349 Z" fill="#e6e6e6"/>
  <path d="M 735.724 594.764 C 679.366 664.833 640.588 588.515 602.373 507.521 L 556.265 582.559 L 528.238 562.67 L 576.565 456.35 C 581.703 445.048 596.399 442.093 605.506 450.531 L 672.89 525.603 L 685.548 524.699 L 735.724 594.764 Z" fill="#2f2e41"/>
  <circle cx="738.888" cy="361.061" r="33.451" fill="#ffb9b9"/>
  <path d="M 781.38 420.73 L 744.312 428.866 C 740.754 413.603 735.603 398.755 728.943 384.567 L 763.298 371.91 C 767.52 388.796 773.583 405.167 781.38 420.73 Z" fill="#ffb9b9"/>
  <path d="M 738.888 603.353 L 672.89 525.603 L 699.765 480.933 C 702.594 460.838 712.972 445.044 728.943 432.434 L 739.792 414.401 L 772.339 400.84 C 795.829 419.525 803.919 451.614 792.095 479.203 L 738.888 603.353 Z" fill="#ffffff"/>
  <path d="M 681.931 517.466 L 642.152 486.727 L 623.307 472.345 C 615.659 466.509 615.947 454.906 623.874 449.456 C 630.759 444.723 640.226 446.961 644.262 454.277 L 651.193 466.838 L 690.068 500.289 L 681.931 517.466 Z" fill="#ffb9b9"/>
  <path d="M 684.643 494.864 L 673.795 517.466 L 728.943 544.588 C 771.839 507.239 795.757 471.424 779.571 419.826 L 758.778 425.25 L 717.19 510.233 L 684.643 494.864 Z" fill="#ffffff"/>
  <circle cx="782.315" cy="309.191" r="13.318" fill="#2f2e41"/>
  <path d="M 768.591 305.93 C 769.045 298.917 774.875 293.466 781.903 293.482 C 781.628 293.447 781.356 293.405 781.075 293.387 C 770.844 292.729 763.737 303.394 768.283 312.584 C 770.393 316.848 774.618 319.664 779.366 319.969 C 779.647 319.987 779.922 319.98 780.2 319.981 C 773.227 319.097 768.143 312.944 768.591 305.93 Z" fill="#2f2e41"/>
  <path d="M 768.516 311.618 C 756.638 301.764 722.569 314.288 720.371 320.912 C 704.308 323.101 692.147 332.473 692.147 349.135 L 692.147 349.136 C 701.697 353.048 712.557 352.566 724.298 349.136 C 743.013 364.387 744.296 383.561 732.914 405.582 L 746.917 405.862 L 764.274 380.495 L 765.104 406.226 L 797.201 405.582 L 797.201 368.708 C 797.305 356.447 794.483 344.339 788.969 333.388 C 783.968 323.671 776.205 317.997 768.516 311.618 Z" fill="#2f2e41"/>
  <ellipse cx="738.627" cy="367.85" rx="6.369" ry="8.916" fill="#ffb8b8"/>
  <path d="M241.74319,325.9508" transform="translate(-199.74317 -134.07464)" fill="none" stroke="#fff" stroke-miterlimit="10" stroke-width="2" stroke-dasharray="12"/>
</svg>